<svg data-v-0dd9719b="" version="1.0" xmlns="http://www.w3.org/2000/svg" xmlns:xlink="http://www.w3.org/1999/xlink" width="100%" height="100%" viewBox="0 0 340.000000 250.000000" preserveAspectRatio="xMidYMid meet" color-interpolation-filters="sRGB" style="margin: auto;"> <rect data-v-0dd9719b="" x="0" y="0" width="100%" height="100%" fill="#fff" fill-opacity="1" class="background"></rect> <rect data-v-0dd9719b="" x="0" y="0" width="100%" height="100%" fill="url(#watermark)" fill-opacity="1" class="watermarklayer"></rect> <g data-v-0dd9719b="" fill="#a40b5d" class="icon-text-wrapper icon-svg-group iconsvg" transform="translate(48.55500030517578,95.00989723205566)"><g class="iconsvg-imagesvg" transform="translate(0,0)"><g><rect fill="#a40b5d" fill-opacity="0" stroke-width="2" x="0" y="0" width="60" height="59.980206531844495" class="image-rect"></rect> <svg x="0" y="0" width="60" height="59.980206531844495" filtersec="colorsb911697591" class="image-svg-svg primary" style="overflow: visible;"><svg xmlns="http://www.w3.org/2000/svg" viewBox="-0.0016255804803222418 -0.00019611939205788076 84.86376953125 84.83587646484375"><g><g><path d="M42.45 0a42.17 42.17 0 0 1 27 9.67l-6 6a34 34 0 0 0-41.85 0l-6-6A42.1 42.1 0 0 1 42.45 0z" fill="#a40b5d"></path><path d="M75.22 15.49a42.47 42.47 0 0 1 0 53.89l-27-26.95zM69.4 75.2a42.52 42.52 0 0 1-53.91 0l27-27zM9.67 69.38a42.37 42.37 0 0 1 0-53.89l27 26.95z" fill="#00476e"></path><path d="M42.45 17a25.41 25.41 0 0 1 14.84 4.76l-6.12 6.14a16.89 16.89 0 0 0-17.49 0l-6.11-6.14A25.44 25.44 0 0 1 42.45 17z" fill="#a40b5d"></path></g></g></svg></svg> <!----></g></g> <g transform="translate(67,2.5188541412353516)"><g data-gra="path-name" fill-rule="" class="tp-name iconsvg-namesvg" transform="translate(0,0)"><g transform="scale(1)"><g><path d="M29.56 3.15L29.56 3.15Q25.98 3.15 25.23 1.27L25.23 1.27 25.19 0.96Q25.19 0.52 25.71 0.17L25.71 0.17Q26.72-0.52 28.6-0.52L28.6-0.52 31.88-0.48Q32.97-0.48 33.45-0.52L33.45-0.52Q34.15-0.52 34.15-2.1L34.15-2.1 34.15-30.35 15.39-30.35Q13.47-30.35 13.47-31.22L13.47-31.22 13.47-29.34 13.86-30.17Q13.34-29.43 12.07-29.17L12.07-29.17Q11.68-29.08 11.37-29.08L11.37-29.08Q10.54-29.08 9.88-29.56L9.88-29.56Q7.7-31.01 4.99-32.54L4.99-32.54Q4.11-33.06 4.11-33.63L4.11-33.63Q4.11-33.89 4.33-34.2L4.33-34.2Q5.29-35.42 6.6-35.42L6.6-35.42Q8.05-35.42 13.47-32.1L13.47-32.1 13.47-32.93Q13.47-33.76 15.35-33.76L15.35-33.76 40.19-33.76Q42.94-33.76 42.94-32.06L42.94-32.06Q42.94-30.35 40.19-30.35L40.19-30.35 39.75-30.35 39.75-2.06Q39.75-0.31 39.23 0.68 38.7 1.66 37.04 2.27L37.04 2.27Q34.94 3.06 29.56 3.15ZM6.3 1.92L6.3 1.92Q5.16 1.92 3.98 0.96L3.98 0.96Q3.06 0.26 3.06-0.13L3.06-0.13Q3.06-0.39 3.37-0.83L3.37-0.83Q6.12-4.99 9.31-10.89L9.31-10.89 9.49-11.15Q10.36-12.81 11.59-12.81L11.59-12.81Q12.68-12.81 14.04-11.5L14.04-11.5Q14.61-10.98 14.61-10.5L14.61-10.5Q14.61-10.28 14.52-10.06L14.52-10.06Q11.68-4.46 8.75 0.48L8.75 0.48Q7.87 1.92 6.3 1.92ZM27.42-9.1L27.42-9.1 19.33-9.1Q17.45-9.1 16.57-9.97 15.7-10.85 15.7-11.68L15.7-11.68 15.7-21.82Q15.7-22.65 16.57-23.53 17.45-24.4 19.33-24.4L19.33-24.4 27.42-24.4Q29.3-24.4 30.17-23.53 31.05-22.65 31.05-21.82L31.05-21.82 31.05-11.68Q31.05-10.85 30.17-9.97 29.3-9.1 27.42-9.1ZM21.17-12.2L25.54-12.2Q25.8-12.2 25.8-13.51L25.8-13.51 25.8-19.94Q25.8-21.25 25.54-21.25L25.54-21.25 21.17-21.25Q20.9-21.25 20.9-19.94L20.9-19.94 20.9-13.51Q20.9-12.2 21.17-12.2L21.17-12.2ZM9.66-17.32L9.66-17.32Q8.75-17.32 7.65-18.02L7.65-18.02Q7.3-18.19 5.47-19.37L5.47-19.37Q3.76-20.38 2.93-20.84 2.1-21.3 2.1-21.82L2.1-21.82Q2.1-22.08 2.32-22.39L2.32-22.39Q3.24-23.7 4.55-23.7L4.55-23.7Q5.34-23.7 6.3-23.18L6.3-23.18Q12.46-20.12 12.46-19.64L12.46-19.64Q12.46-19.5 12.03-18.85L12.03-18.85Q11.02-17.32 9.66-17.32ZM77.01 3.1L77.01 3.1Q73.64 3.1 73.64 1.44L73.64 1.44Q73.64 1.09 73.86 0.92L73.86 0.92Q74.78 0.22 76.57 0.22L76.57 0.22 76.79 0.22Q79.33 0.22 79.48 0.09 79.64-0.04 79.64-20.03L79.64-20.03Q79.64-21.34 79.37-21.34L79.37-21.34 55.76-21.34Q55.5-21.34 55.5-20.03L55.5-20.03 55.5 1.36Q55.5 3.1 52.7 3.1L52.7 3.1Q49.9 3.1 49.9 1.36L49.9 1.36 49.9-22Q49.9-22.83 50.77-23.7 51.65-24.58 53.53-24.58L53.53-24.58 63.98-24.58Q64.02-25.19 64.15-26.2L64.15-26.2Q64.37-27.81 64.5-29.08L64.5-29.08 50.51-29.08Q47.84-29.08 47.84-30.74L47.84-30.74Q47.84-32.36 50.51-32.36L50.51-32.36 64.77-32.36Q64.94-33.24 64.94-34.46L64.94-34.46Q65.07-36.25 67.52-36.25L67.52-36.25Q70.8-36.25 70.8-34.5L70.8-34.5 70.54-32.36 84.62-32.36Q87.29-32.36 87.29-30.74L87.29-30.74Q87.29-29.08 84.62-29.08L84.62-29.08 70.1-29.08Q69.84-27.16 69.36-24.58L69.36-24.58 81.69-24.58Q83.57-24.58 84.45-23.7 85.32-22.83 85.32-22L85.32-22 85.32-1.01Q85.32 0.31 84.91 1.07 84.49 1.84 83.09 2.41L83.09 2.41Q81.47 3.02 77.01 3.1ZM67.43 2.14L67.43 2.14Q64.72 2.14 64.72 0.48L64.72 0.48 64.72-5.03 58.43-5.03Q56.02-5.03 56.02-6.43L56.02-6.43Q56.02-7.78 58.43-7.78L58.43-7.78 64.72-7.78 64.72-12.07 59.3-12.07Q56.94-12.07 56.94-13.43L56.94-13.43Q56.94-14.74 59.3-14.74L59.3-14.74 61.01-14.74Q60.39-17.32 59.26-19.59L59.26-19.59Q59.43-19.59 60.13-19.77 60.83-19.94 61.4-19.94L61.4-19.94Q62.45-19.94 63.41-19.35 64.37-18.76 64.77-17.89L64.77-17.89Q65.07-17.27 65.07-16.84L65.07-16.84Q65.07-15.83 63.5-15.39L63.5-15.39 62.14-14.74 69.1-14.74Q69.88-16.62 70.67-18.8L70.67-18.8Q71.11-20.29 72.81-20.29L72.81-20.29Q73.38-20.29 74.08-20.12L74.08-20.12Q75.74-19.72 75.74-18.89L75.74-18.89Q75.74-18.72 75.66-18.5L75.66-18.5Q75.04-17.19 73.99-14.74L73.99-14.74 75.96-14.74Q78.32-14.74 78.32-13.43L78.32-13.43Q78.32-12.07 75.96-12.07L75.96-12.07 70.15-12.07 70.15-7.78 76.75-7.78Q79.15-7.78 79.15-6.43L79.15-6.43Q79.15-5.03 76.75-5.03L76.75-5.03 70.15-5.03 70.15 0.48Q70.15 2.14 67.43 2.14ZM128.09 1.49L128.09 1.49 97.65 1.49Q95.77 1.49 94.9 0.61 94.02-0.26 94.02-1.09L94.02-1.09 94.02-32.06Q94.02-32.89 94.9-33.76 95.77-34.64 97.65-34.64L97.65-34.64 128.09-34.64Q129.97-34.64 130.85-33.76 131.72-32.89 131.72-32.06L131.72-32.06 131.72-1.09Q131.72-0.26 130.85 0.61 129.97 1.49 128.09 1.49ZM99.62-1.66L125.95-1.66Q126.21-1.66 126.21-2.97L126.21-2.97 126.21-30.17Q126.21-31.49 125.95-31.49L125.95-31.49 99.62-31.49Q99.36-31.49 99.36-30.17L99.36-30.17 99.36-2.97Q99.36-1.66 99.62-1.66L99.62-1.66ZM118.43-3.67L118.43-3.67 110.86-3.67Q107.23-3.67 106.03-4.53 104.83-5.38 104.83-7.26L104.83-7.26 104.83-11.46Q105.79-12.38 105.79-12.51L105.79-12.51Q105.79-12.55 105.74-12.55L105.74-12.55Q105.57-12.55 103.86-11.33L103.86-11.33Q102.73-10.63 101.81-10.63L101.81-10.63Q100.71-10.63 99.84-11.63L99.84-11.63Q99.66-11.85 99.66-12.07L99.66-12.07Q99.66-12.55 100.58-13.12L100.58-13.12Q102.94-14.74 105.35-17.71L105.35-17.71 101.76-17.71Q99.71-17.71 99.71-18.76L99.71-18.76Q99.71-19.77 101.76-19.77L101.76-19.77 106.62-19.77Q107.23-20.86 108.06-23.05L108.06-23.05 106.14-23.05Q103.99-23.05 103.99-24.14L103.99-24.14 103.99-22.35Q105.13-23.79 105.13-23.97L105.13-23.97Q105.04-23.97 104.61-23.62L104.61-23.62Q103.69-22.65 102.68-22.65L102.68-22.65Q101.81-22.65 100.85-23.4L100.85-23.4Q100.45-23.66 100.45-23.97L100.45-23.97Q100.45-24.23 100.76-24.49L100.76-24.49Q102.33-26.06 103.6-28.16L103.6-28.16Q104.26-29.34 105.61-29.34L105.61-29.34Q106.14-29.34 106.79-29.17L106.79-29.17Q108.1-28.82 108.1-28.38L108.1-28.38Q108.1-27.99 105.87-24.93L105.87-24.93 108.76-24.93Q109.2-26.24 109.59-28.21L109.59-28.21Q109.81-29.61 111.6-29.61L111.6-29.61Q114.27-29.61 114.27-28.47L114.27-28.47Q114.27-27.9 113.4-24.93L113.4-24.93 120.17-24.93Q118.69-26.76 117.68-27.86L117.68-27.86Q117.51-27.99 117.51-28.16L117.51-28.16Q117.51-28.43 118.03-28.73L118.03-28.73Q118.95-29.3 119.74-29.3L119.74-29.3Q120.7-29.3 121.53-28.47L121.53-28.47Q123.89-26.24 125.55-23.97L125.55-23.97Q125.64-23.88 125.69-23.88L125.69-23.88Q125.73-23.88 125.77-23.97L125.77-23.97Q125.64-23.7 124.9-23.22L124.9-23.22Q123.85-22.57 122.97-22.57L122.97-22.57Q121.88-22.57 121.14-23.66L121.14-23.66 121.71-22.78 121.71-23.57Q121.71-23.05 120.13-23.05L120.13-23.05 117.64-23.05Q118.6-20.73 119.17-19.77L119.17-19.77 123.89-19.77Q125.95-19.77 125.95-18.76L125.95-18.76Q125.95-17.71 123.89-17.71L123.89-17.71 120.39-17.71Q122.89-14.87 124.81-13.64L124.81-13.64Q125.99-12.99 125.99-12.81L125.99-12.81Q125.99-12.59 125.64-12.2L125.64-12.2Q124.77-11.15 123.63-11.15L123.63-11.15Q122.71-11.15 121.57-11.81L121.57-11.81 119.34-13.34 119.34-14.08Q119.13-10.28 118.56-9.53L118.56-9.53Q117.46-8.35 114.8-8.35L114.8-8.35 113.31-8.4Q111.08-8.53 111.08-9.53L111.08-9.53Q111.08-10.1 112.57-10.1L112.57-10.1 113.57-10.06Q113.92-10.06 114.4-10.58L114.4-10.58Q114.4-10.45 113-8.48L113-8.48Q114.66-10.45 114.88-12.99L114.88-12.99 109.59-12.99 109.59-7.35Q109.59-6.03 109.85-5.88 110.12-5.73 118.12-5.73L118.12-5.73Q118.43-5.73 118.64-6.08L118.64-6.08Q119.13-8.53 120.87-8.53L120.87-8.53Q121.49-8.53 122.23-8.22L122.23-8.22Q123.28-7.83 123.28-6.73L123.28-6.73 123.28-6.43Q122.93-5.12 121.88-4.4 120.83-3.67 118.43-3.67ZM107.93-14.83L118.12-14.83Q116.68-16.53 115.93-17.71L115.93-17.71 110.12-17.71Q109.5-16.79 107.93-14.83L107.93-14.83ZM111.3-19.77L114.75-19.77Q114.01-21.25 113.44-23.05L113.44-23.05 112.74-23.05Q112.3-21.78 111.3-19.77L111.3-19.77ZM146.24 3.19L146.24 3.19Q143.57 3.19 143.57 0.83L143.57 0.83 143.57-11.41Q143.57-8.35 143.79-8.35L143.79-8.35Q143.83-8.35 143.88-8.48L143.88-8.48Q142.92-5.9 142.48-5.42L142.48-5.42Q141.12-3.67 139.64-3.67L139.64-3.67Q138.54-3.67 137.41-4.59L137.41-4.59Q136.92-4.99 136.92-5.51L136.92-5.51Q136.92-6.12 137.51-6.84 138.1-7.57 139.85-10.98L139.85-10.98Q141.52-14.21 142.57-17.45L142.57-17.45Q142.57-17.8 140.6-18.28L140.6-18.28Q137.19-18.28 137.19-19.94L137.19-19.94Q137.19-21.56 142.08-21.82L142.08-21.82Q143.35-22.04 143.57-22.04L143.57-22.04 143.57-34.02Q143.57-36.38 146.24-36.38L146.24-36.38Q148.91-36.38 148.91-34.02L148.91-34.02 148.91-22.04Q149.04-22.04 150.83-21.56L150.83-21.56Q154.24-21.56 154.24-19.94L154.24-19.94Q154.24-18.28 150.83-18.28L150.83-18.28 148.91-17.8Q148.91-16.09 149.56-15.31L149.56-15.31 153.54-10.89Q154.2-10.15 154.2-9.62L154.2-9.62Q154.2-9.14 153.72-8.79L153.72-8.79Q152.62-7.92 151.62-7.92L151.62-7.92Q150.13-7.92 148.91-9.84L148.91-9.84 148.95-9.8Q148.91-9.84 148.91-11.68L148.91-11.68 148.91 0.83Q148.91 3.19 146.24 3.19ZM141.25-24.1L141.25-24.1Q139.29-24.1 139.02-26.41L139.02-26.41Q138.89-27.64 138.02-30.74L138.02-30.74Q137.89-31.22 137.89-31.57L137.89-31.57Q137.89-33.19 140.2-33.19L140.2-33.19Q141.95-33.19 142.65-30.96L142.65-30.96Q143.79-27.33 143.79-26.02L143.79-26.02Q143.79-24.1 141.25-24.1ZM150.39-23.97L150.39-23.97Q149.78-23.97 149.06-24.25 148.34-24.53 148.34-25.45L148.34-25.45Q148.34-25.85 148.51-26.41L148.51-26.41Q149.34-28.64 149.83-30.98 150.31-33.32 152.23-33.32L152.23-33.32Q152.76-33.32 153.37-33.15L153.37-33.15Q154.81-32.8 154.81-31.66L154.81-31.66Q154.81-31.31 154.68-30.87L154.68-30.87Q153.19-26.46 153.02-26.15L153.02-26.15Q152.06-23.97 150.39-23.97ZM175.5-18.72L175.5-18.72Q174.05-18.72 172.48-20.51L172.48-20.51Q171.91-21.12 170.73-22.52L170.73-22.52Q170.12-23.22 168.59-26.94L168.59-26.94Q166.57-31.84 166.57-33.5L166.57-33.5Q166.57-34.99 168.63-35.38L168.63-35.38Q169.07-35.47 169.46-35.47L169.46-35.47Q171.47-35.47 171.95-33.15L171.95-33.15Q172.48-30.31 174.29-26.72 176.11-23.13 177.24-22.17L177.24-22.17Q177.99-21.52 177.99-20.82L177.99-20.82Q177.99-20.2 177.33-19.55L177.33-19.55Q176.46-18.72 175.5-18.72ZM166.79 2.84L166.79 2.84Q162.9 2.84 162.9 1.31L162.9 1.31Q162.9-0.31 166.01-0.31L166.01-0.31 167.27-0.26Q167.45-0.26 168.45-1.57L168.45-1.57Q168.98-2.27 169.55-15.7L169.55-15.7 164.96-16.22 165.44-15.7Q165.39-15.7 165.39-15.83L165.39-15.83Q164.69-9.23 162.55-4.81L162.55-4.81Q160.23-0.04 157.7 1.62L157.7 1.62Q156.08 2.67 154.9 2.67L154.9 2.67Q153.54 2.67 152.71 1.36L152.71 1.36Q152.58 1.18 152.58 0.96L152.58 0.96Q152.58 0.22 154.11-0.66L154.11-0.66Q155.25-1.31 157.39-5.55L157.39-5.55Q159.31-9.53 159.93-15.7L159.93-15.7 158.75-16.22Q155.34-16.22 155.34-18.19L155.34-18.19Q155.34-17.84 155.55-17.84L155.55-17.84Q155.86-17.84 156.73-18.72L156.73-18.72Q156.12-18.19 155.47-18.19L155.47-18.19Q154.29-18.19 152.97-19.81L152.97-19.81Q152.71-20.16 152.71-20.51L152.71-20.51Q152.71-21.21 153.63-22L153.63-22Q157.87-25.58 159.01-32.97L159.01-32.97Q159.36-35.2 161.55-35.2L161.55-35.2Q161.94-35.2 162.42-35.12L162.42-35.12Q164.43-34.77 164.43-33.28L164.43-33.28 164.39-32.76Q163.03-25.45 158.48-20.47L158.48-20.47Q158.13-19.99 157.65-19.46L157.65-19.46 171.87-19.46Q175.19-19.46 175.19-17.27L175.19-17.27 175.19-17.1Q174.75-8.18 174.27-4.22 173.79-0.26 172.83 1.01L172.83 1.01Q171.38 2.84 166.79 2.84Z" transform="translate(-2.0999999046325684, 36.380001068115234)"></path></g> <!----> <!----> <!----> <!----> <!----> <!----> <!----></g></g> <g data-gra="path-slogan" fill-rule="" class="tp-slogan iconsvg-slogansvg" fill="#a40b5d" transform="translate(37.05999755859375,45.56999969482422)"><!----> <!----> <g transform="scale(1, 1)"><g transform="scale(1)"><path d="M2.06-5.06L6.56-5.06L6.56-8.58L7.73-8.58L7.73 0L6.56 0L6.56-3.98L2.06-3.98L2.06 0L0.89 0L0.89-8.58L2.06-8.58L2.06-5.06ZM10.83-1.03L15.98-1.03L15.98 0L9.66 0L9.66-8.58L15.89-8.58L15.89-7.59L10.83-7.59L10.83-4.92L15.52-4.92L15.52-3.89L10.83-3.89L10.83-1.03ZM18.89-8.58L23.20-1.64L23.20-8.58L24.33-8.58L24.33 0L23.02 0L18.66-6.94L18.61-6.94L18.61 0L17.48 0L17.48-8.58L18.89-8.58ZM31.78 0L30.94-2.48L27.47-2.48L26.58 0L25.41 0L28.64-8.58L29.95-8.58L33.05 0L31.78 0ZM29.20-7.31L27.84-3.52L30.52-3.52L29.25-7.31L29.20-7.31ZM35.48-8.58L39.80-1.64L39.80-8.58L40.92-8.58L40.92 0L39.61 0L35.25-6.94L35.20-6.94L35.20 0L34.08 0L34.08-8.58L35.48-8.58ZM51.05-1.08L50.16-1.78L50.77-2.48L51.84-1.64Q52.83-2.63 52.83-4.27L52.83-4.27Q52.64-7.64 49.83-7.83L49.83-7.83Q46.97-7.69 46.83-4.27L46.83-4.27Q46.97-0.94 49.83-0.80L49.83-0.80Q50.53-0.80 51.05-1.08L51.05-1.08ZM52.78-0.94L53.91-0.05L53.34 0.56L52.03-0.33Q51.19 0.14 49.83 0.14L49.83 0.14Q45.89 0 45.61-4.27L45.61-4.27Q45.84-8.72 49.83-8.81L49.83-8.81Q53.72-8.67 54-4.27L54-4.27Q53.95-2.20 52.78-0.94L52.78-0.94ZM61.03-3.19L61.03-8.58L62.20-8.58L62.20-3.05Q62.06 0.05 58.69 0.14L58.69 0.14Q55.55 0.05 55.41-2.86L55.41-2.86L55.41-8.58L56.58-8.58L56.58-3.19Q56.63-0.84 58.73-0.80L58.73-0.80Q61.03-0.84 61.03-3.19L61.03-3.19ZM69.66 0L68.81-2.48L65.34-2.48L64.45 0L63.28 0L66.52-8.58L67.83-8.58L70.92 0L69.66 0ZM67.08-7.31L65.72-3.52L68.39-3.52L67.13-7.31L67.08-7.31ZM73.36-8.58L77.67-1.64L77.67-8.58L78.80-8.58L78.80 0L77.48 0L73.13-6.94L73.08-6.94L73.08 0L71.95 0L71.95-8.58L73.36-8.58ZM86.11-3.89L81.89-3.89L81.89 0L80.72 0L80.72-8.58L86.67-8.58L86.67-7.59L81.89-7.59L81.89-4.92L86.11-4.92L86.11-3.89ZM89.16-1.03L94.31-1.03L94.31 0L87.98 0L87.98-8.58L94.22-8.58L94.22-7.59L89.16-7.59L89.16-4.92L93.84-4.92L93.84-3.89L89.16-3.89L89.16-1.03ZM97.22-8.58L101.53-1.64L101.53-8.58L102.66-8.58L102.66 0L101.34 0L96.98-6.94L96.94-6.94L96.94 0L95.81 0L95.81-8.58L97.22-8.58Z" transform="translate(-0.890625, 8.8125)"></path></g></g></g></g></g><defs v-gra="od"></defs></svg>